<svg class="prefix__icon" viewBox="0 0 1024 1024" xmlns="http://www.w3.org/2000/svg" width="200" height="200">
    <path
        d="M796.33 612.938h-5.35l-151.758 79.288c-37.84 19.77-80.412 30.22-123.104 30.22h-.002c-40.8 0-81.682-9.59-118.224-27.736l-164.69-81.772h-5.528c-45.516 0-82.414 36.898-82.414 82.414v308.042c0 11.38 9.224 20.604 20.604 20.604H858.14c11.38 0 20.604-9.224 20.604-20.604v-308.04c0-45.516-36.898-82.416-82.414-82.416z"
        fill="#F3F0F3" />
    <path
        d="M228.51 1003.396V695.354c0-18.502 6.128-35.55 16.426-49.298v-27.288l-11.738-5.828h-5.528c-45.516 0-82.414 36.898-82.414 82.414v308.042c0 11.38 9.224 20.604 20.604 20.604h83.256c-11.38 0-20.606-9.224-20.606-20.604z"
        fill="#E2DEE2" />
    <path
        d="M244.938 618.768V823.4c4.816-1.152 9.836-1.78 15-1.78s10.184.628 15 1.78V633.664zm534.124 139.814V619.166l-30 15.674v123.742c-35.196 6.996-61.812 38.11-61.812 75.33v134.994a15 15 0 0015 15h28.666a15 15 0 000-30H717.25V833.912c0-25.812 21-46.81 46.812-46.81s46.81 21 46.81 46.81v119.994h-13.666a15 15 0 000 30h28.666a15 15 0 0015-15V833.912c.002-37.222-26.614-68.334-61.81-75.33z"
        fill="#A79BA7" />
    <path d="M208.42999999999998 886.128a51.508 51.508 0 10103.016 0 51.508 51.508 0 10-103.016 0z" fill="#B5ADB6" />
    <path
        d="M249.49 886.128c0-21.148 12.75-39.312 30.978-47.244a51.322 51.322 0 00-20.53-4.266c-28.448 0-51.51 23.062-51.51 51.508 0 28.448 23.062 51.508 51.51 51.508 7.3 0 14.238-1.528 20.53-4.266-18.228-7.928-30.978-26.09-30.978-47.24z"
        fill="#A79BA7" />
    <path
        d="M259.938 952.638c-36.672 0-66.508-29.836-66.508-66.508s29.836-66.508 66.508-66.508c36.674 0 66.51 29.836 66.51 66.508s-29.836 66.508-66.51 66.508zm0-103.018c-20.13 0-36.508 16.378-36.508 36.508s16.378 36.508 36.508 36.508c20.132 0 36.51-16.378 36.51-36.508s-16.378-36.508-36.51-36.508z"
        fill="#554E56" />
    <path
        d="M425.86 706.632a263.66 263.66 0 01-27.97-11.92l-50.024-24.838-29.682 63.26a10.304 10.304 0 004.086 13.246l103.588 61.2V706.632zm279.956 26.502l-28.526-60.796-38.068 19.89a265.186 265.186 0 01-41.082 17.192v98.162l103.588-61.2a10.306 10.306 0 004.088-13.248z"
        fill="#FFF" />
    <path
        d="M425.86 754.14l-77.456 74.496a10.302 10.302 0 00-2.334 11.468L423.86 1024l2-4zm251.074 74.496l-78.794-75.784V1020l2 4 79.128-183.896a10.3 10.3 0 00-2.334-11.468z"
        fill="#E2DEE2" />
    <path
        d="M516.118 722.448h-.002c-31.376 0-62.792-5.694-92.256-16.566V1024h176.282V708.766c-27.04 8.992-55.502 13.682-84.024 13.682z"
        fill="#554E56" />
    <path d="M423.86 708.032V1024h64.326V722.98a267.626 267.626 0 01-64.326-14.948z" fill="#433F43" />
    <path
        d="M512 0C355.538 0 228.7 133.662 228.7 298.54v86.624a61.814 61.814 0 009.306 32.616l16.298 26.236a41.204 41.204 0 01-4.856 49.836l-4.16 4.464a61.812 61.812 0 00-16.59 42.138v72.484l168.3 83.564a267.846 267.846 0 00243.146-2.504l155.152-81.06v-72.484a61.812 61.812 0 00-16.59-42.138l-4.16-4.464a41.208 41.208 0 01-4.856-49.836l16.298-26.236a61.82 61.82 0 009.306-32.616V298.54C795.3 133.662 668.462 0 512 0z"
        fill="#FE99A0" />
    <path
        d="M301.5 396.62v-98.104a158.212 158.212 0 0120.392-77.826C350.874 107.336 441.596 20.672 553.722 3.23A271.29 271.29 0 00512 0C355.538 0 228.7 133.662 228.7 298.54v86.624a61.814 61.814 0 009.306 32.616l16.298 26.236a41.204 41.204 0 01-4.856 49.836l-4.16 4.464a61.812 61.812 0 00-16.59 42.138v72.484l83.444 41.432V540.454a61.802 61.802 0 0111.84-36.352C309.538 471.174 301.5 434.82 301.5 396.62z"
        fill="#FD8087" />
    <path
        d="M694.5 311.798a143.55 143.55 0 00-27.594-38.068c-27.006-26.71-62.8-41.422-100.79-41.422H457.882c-37.99 0-73.784 14.71-100.79 41.422a143.616 143.616 0 00-27.594 38.068v81.038c0 88.262 71.808 160.07 160.07 160.07h44.86c88.262 0 160.07-71.808 160.07-160.07v-81.038z"
        fill="#F6A96C" />
    <path
        d="M482.858 550.736c-60.262-27.064-102.252-87.556-102.252-157.9v-42.61c0-42.038 14.834-80.58 39.504-110.772-38.786 10.736-70.874 37.578-88.608 72.878v80.504c-.002 84.91 67.3 154.368 151.356 157.9z"
        fill="#EA9B58" />
    <path
        d="M694.5 316.554v-18.038c0-72.358-58.868-131.224-131.226-131.224H460.726c-72.358 0-131.226 58.868-131.226 131.224v18.038c22.384-48.538 71.422-82.246 128.382-82.246h108.234c56.962 0 106 33.708 128.384 82.246z"
        fill="#FFF" />
    <path
        d="M460.796 169.292h-.07c-71.254 0-129.226 57.97-129.226 129.224v13.858a142.056 142.056 0 0156.552-59.594c12.216-36.54 38.658-66.552 72.744-83.488z"
        fill="#F3F0F3" />
    <path
        d="M419.284 369.116a15 15 0 01-15-15v-44.22a15 15 0 0130 0v44.22a15 15 0 01-15 15zm185.432 0a15 15 0 01-15-15v-44.22a15 15 0 0130 0v44.22a15 15 0 01-15 15zM512.004 413.336a14.954 14.954 0 01-11.026-4.826l-20.604-22.32a14.998 14.998 0 01-2.632-16.38l20.604-45.328a15 15 0 1127.31 12.414l-16.484 36.262 13.85 15.004a15 15 0 01-11.018 25.174zM512 500.816c-23.268 0-45.152-9.072-61.624-25.542a15 15 0 010-21.212 15 15 0 0121.212 0c10.804 10.806 25.156 16.756 40.41 16.756s29.606-5.95 40.41-16.756a14.996 14.996 0 0121.212 0 15 15 0 010 21.212c-16.468 16.47-38.352 25.542-61.62 25.542z"
        fill="#A44F3E" />
    <path
        d="M563.274 139.292H460.726c-87.796 0-159.226 71.428-159.226 159.224v98.104c0 148.01 120.416 268.424 268.424 268.424a15 15 0 000-30c-72.326 0-137.226-32.376-180.986-83.392 29.118 18.516 63.642 29.256 100.63 29.256h44.86c103.702 0 188.07-84.368 188.07-188.07v-94.32c.002-87.798-71.426-159.226-159.224-159.226zM692.5 392.836c0 87.16-70.91 158.07-158.07 158.07h-44.86c-87.16 0-158.07-70.91-158.07-158.07v-94.32c0-71.254 57.97-129.224 129.226-129.224h102.548c71.254 0 129.226 57.97 129.226 129.224z"
        fill="#FE646F" />
</svg>